<svg viewBox="0 0 1440 282" fill="none" xmlns="http://www.w3.org/2000/svg">
  <path d="M963 222.811V56.5421L841.499 0L720 56.5341V222.803L841.499 281L963 222.811Z" fill="#FFD600" />
  <path d="M844 107.403V281L719 223.585L720.416 57L844 107.403Z" fill="#F4CD06" />
  <path d="M237 222.811V56.5421L115.499 0L-6 56.5341V222.803L115.499 281L237 222.811Z" fill="#6704D8" />
  <path d="M118 107.403V281L-7 223.585L-5.58397 57L118 107.403Z" fill="#460096" />
  <path d="M1205 222.811V56.5421L1084 0L963 56.5341V222.803L1084 281L1205 222.811Z" fill="#FF7A00" />
  <path d="M1086 107.403V281L962 223.585L963.405 57L1086 107.403Z" fill="#E87104" />
  <path d="M479 222.811V56.5421L357.999 0L237 56.5341V222.803L357.999 281L479 222.811Z" fill="#2724CA" />
  <path d="M360 107.403V281L236 223.585L237.405 57L360 107.403Z" fill="#1C1A9B" />
  <path d="M1447 222.811V56.5421L1325.5 0L1204 56.5341V222.803L1325.5 281L1447 222.811Z" fill="#DC2220" />
  <path d="M1328 107.403V281L1203 223.585L1204.42 57L1328 107.403Z" fill="#B61923" />
  <path d="M721 223.811V57.5421L599.499 1L478 57.5341V223.803L599.499 282L721 223.811Z" fill="#05CB0D" />
  <path d="M602 108.403V282L477 224.585L478.416 58L602 108.403Z" fill="#05BF0C" />
</svg>
