<svg viewBox="0 0 375 145" fill="none" xmlns="http://www.w3.org/2000/svg">
  <path d="M251 114.974V29.1766L188.499 0L126 29.1724V114.97L188.499 145L251 114.974Z" fill="#FFD600"/>
  <path d="M191 55.1014V145L125 115.267L125.748 29L191 55.1014Z" fill="#F4CD06"/>
  <path d="M126 114.974V29.1766L63.4993 0L1 29.1724V114.97L63.4993 145L126 114.974Z" fill="#05CB0D"/>
  <path d="M65 55.1014V145L0 115.267L0.736334 29L65 55.1014Z" fill="#05BF0C"/>
  <path d="M375 114.974V29.1766L312.999 0L251 29.1724V114.97L312.999 145L375 114.974Z" fill="#FF7A00"/>
  <path d="M314 55.1014V145L250 115.267L250.725 29L314 55.1014Z" fill="#E87104"/>
</svg>
